<?xml version="1.0" standalone="no"?><!DOCTYPE svg PUBLIC "-//W3C//DTD SVG 1.1//EN" "http://www.w3.org/Graphics/SVG/1.1/DTD/svg11.dtd"><svg t="1513934277837" class="icon" style="" viewBox="0 0 1024 1024" version="1.1" xmlns="http://www.w3.org/2000/svg" p-id="13022" xmlns:xlink="http://www.w3.org/1999/xlink" width="200" height="200"><defs><style type="text/css"></style></defs><path d="M682.67 284.447c-31.416 0-56.893-25.467-56.893-56.894V0l284.446 284.447H682.67z m0 56.883h227.553v568.893c0 62.833-50.944 113.777-113.776 113.777H227.553c-62.832 0-113.776-50.944-113.776-113.777V113.777C113.777 50.944 164.72 0 227.553 0h341.33v227.553c0.01 62.843 50.944 113.777 113.787 113.777zM256 853.33h341.33v-56.894H256v56.894z m0-170.66h512v-56.893H256v56.893z m0-227.563V512h512v-56.893H256z" p-id="13023" fill="#9e9e9e"></path></svg>