<?xml version="1.0" standalone="no"?><!DOCTYPE svg PUBLIC "-//W3C//DTD SVG 1.1//EN" "http://www.w3.org/Graphics/SVG/1.1/DTD/svg11.dtd"><svg t="1513934506366" class="icon" style="" viewBox="0 0 1024 1024" version="1.1" xmlns="http://www.w3.org/2000/svg" p-id="16428" xmlns:xlink="http://www.w3.org/1999/xlink" width="200" height="200"><defs><style type="text/css"></style></defs><path d="M303.968 633.152l86.848 86.848-29.728 29.728-32 0 0-54.848-54.848 0 0-32zM540.544 410.272q8 7.424-1.728 17.152l-166.272 166.272q-9.728 9.728-17.152 1.728-8-7.424 1.728-17.152l166.272-166.272q9.728-9.728 17.152-1.728zM383.968 804.576l310.848-310.848-164.576-164.576-310.848 310.848 0 164.576 164.576 0zM731.392 457.152l52.576-52.576q16-16 16-38.848t-16-38.848l-86.848-86.848q-16-16-38.848-16t-38.848 16l-52.576 52.576zM950.848 237.728l0 548.576q0 68-48.288 116.288t-116.288 48.288l-548.576 0q-68 0-116.288-48.288t-48.288-116.288l0-548.576q0-68 48.288-116.288t116.288-48.288l548.576 0q68 0 116.288 48.288t48.288 116.288z" p-id="16429" fill="#9e9e9e"></path></svg>