<?xml version="1.0" standalone="no"?><!DOCTYPE svg PUBLIC "-//W3C//DTD SVG 1.1//EN" "http://www.w3.org/Graphics/SVG/1.1/DTD/svg11.dtd"><svg t="1513934705679" class="icon" style="" viewBox="0 0 1024 1024" version="1.1" xmlns="http://www.w3.org/2000/svg" p-id="17245" xmlns:xlink="http://www.w3.org/1999/xlink" width="200" height="200"><defs><style type="text/css"></style></defs><path d="M438.848 73.152q119.424 0 220.288 58.848t159.712 159.712 58.848 220.288-58.848 220.288-159.712 159.712-220.288 58.848-220.288-58.848-159.712-159.712-58.848-220.288 58.848-220.288 159.712-159.712 220.288-58.848zM658.272 543.424q18.272-10.272 18.272-31.424t-18.272-31.424l-310.848-182.848q-17.728-10.848-36.576-0.576-18.272 10.848-18.272 32l0 365.728q0 21.152 18.272 32 9.152 4.576 18.272 4.576 9.728 0 18.272-5.152z" p-id="17246" fill="#009a61"></path></svg>