<?xml version="1.0" standalone="no"?><!DOCTYPE svg PUBLIC "-//W3C//DTD SVG 1.1//EN" "http://www.w3.org/Graphics/SVG/1.1/DTD/svg11.dtd"><svg t="1513933493143" class="icon" style="" viewBox="0 0 1024 1024" version="1.1" xmlns="http://www.w3.org/2000/svg" p-id="7784" xmlns:xlink="http://www.w3.org/1999/xlink" width="200" height="200"><defs><style type="text/css"></style></defs><path d="M967.111111 901.152c0 45.504 23.125333 84.896 56.888889 104.192l0 15.936c-9.443556 1.44-19.086222 2.24-28.899556 2.24-60.444444 0-114.972444-28.544-153.543111-74.272-23.296 6.976-48.014222 10.752-73.585778 10.752-141.397333 0-256-114.624-256-256 0-141.376 114.602667-256 256-256 141.397333 0 256 114.624 256 256 0 55.36-17.578667 106.592-47.416889 148.48-6.058667 14.816-9.472 31.328-9.472 48.704zM455.111111 0c247.523556 0 448.881778 180.608 454.968889 405.504-43.719111-21.92-92.074667-33.504-142.08-33.504-84.935111 0-165.176889 33.44-225.905778 94.176-62.976 62.976-97.649778 147.424-97.649778 237.824 0 44.672 8.476444 87.904 24.661333 127.776-4.636444 0.128-9.301333 0.224-13.994667 0.224-24.149333 0-47.843556-1.728-70.968889-5.056-97.763556 109.984-214.442667 129.696-327.253333 132.608l0-26.912c60.928-33.568 113.777778-94.752 113.777778-164.64 0-9.76-0.682667-19.328-1.934222-28.704-102.940444-76.256-168.732444-192.768-168.732444-323.296 0-229.76 203.747556-416 455.111111-416z" p-id="7785" fill="#009a61"></path></svg>